<mxfile host="app.diagrams.net" modified="2024-10-23T09:30:27.650Z" agent="Mozilla/5.0 (Windows NT 10.0; Win64; x64; rv:131.0) Gecko/20100101 Firefox/131.0" etag="Jek0ekqAOrx6MD7nU8Wm" version="24.6.4" type="device">
  <diagram id="3228e29e-7158-1315-38df-8450db1d8a1d" name="Page-1">
    <mxGraphModel dx="1434" dy="902" grid="1" gridSize="10" guides="1" tooltips="1" connect="1" arrows="1" fold="1" page="1" pageScale="1" pageWidth="1169" pageHeight="827" background="none" math="0" shadow="0">
      <root>
        <mxCell id="0" />
        <mxCell id="1" parent="0" />
        <mxCell id="21531" value="" style="ellipse;fillColor=#F08705;opacity=60;strokeColor=none;html=1;fontColor=#FFFFFF;" parent="1" vertex="1">
          <mxGeometry x="310" y="140" width="500" height="500" as="geometry" />
        </mxCell>
        <mxCell id="21532" value="" style="ellipse;fillColor=#12AAB5;opacity=60;strokeColor=none;html=1;fontColor=#FFFFFF;" parent="1" vertex="1">
          <mxGeometry x="239.5" y="40" width="500" height="500" as="geometry" />
        </mxCell>
        <mxCell id="21533" value="" style="ellipse;fillColor=#e85642;opacity=60;strokeColor=none;html=1;fontColor=#FFFFFF;" parent="1" vertex="1">
          <mxGeometry x="400" y="40" width="500" height="500" as="geometry" />
        </mxCell>
        <mxCell id="21534" value="&lt;font style=&quot;font-size: 30px;&quot;&gt;&lt;b&gt;EO data&lt;/b&gt;&lt;/font&gt;" style="text;fontSize=24;align=center;verticalAlign=middle;html=1;fontColor=#FFFFFF;" parent="1" vertex="1">
          <mxGeometry x="230" y="160" width="190" height="70" as="geometry" />
        </mxCell>
        <mxCell id="21535" value="&lt;div style=&quot;font-size: 30px;&quot;&gt;&lt;b&gt;&lt;font style=&quot;font-size: 30px;&quot;&gt;Remote&lt;/font&gt;&lt;/b&gt;&lt;/div&gt;&lt;div style=&quot;font-size: 30px;&quot;&gt;&lt;b&gt;&lt;font style=&quot;font-size: 30px;&quot;&gt;sensing&lt;/font&gt;&lt;/b&gt;&lt;/div&gt;" style="text;fontSize=24;align=center;verticalAlign=middle;html=1;fontColor=#FFFFFF;" parent="1" vertex="1">
          <mxGeometry x="720" y="168.5" width="190" height="70" as="geometry" />
        </mxCell>
        <mxCell id="21536" value="&lt;font style=&quot;font-size: 30px;&quot;&gt;&lt;b&gt;Geodata&lt;/b&gt;&lt;/font&gt;" style="text;fontSize=24;align=center;verticalAlign=middle;html=1;fontColor=#FFFFFF;" parent="1" vertex="1">
          <mxGeometry x="460" y="550" width="190" height="70" as="geometry" />
        </mxCell>
        <mxCell id="21540" value="&lt;font size=&quot;1&quot;&gt;&lt;b&gt;&lt;i style=&quot;font-size: 22px;&quot;&gt;B&lt;/i&gt;&lt;/b&gt;&lt;/font&gt;" style="text;align=center;html=1;fontColor=#FFFFFF;fontSize=16;" parent="1" vertex="1">
          <mxGeometry x="540" y="290" width="40" height="40" as="geometry" />
        </mxCell>
        <mxCell id="6UKo3PlXrQR8D-CyZD5M-21542" value="" style="ellipse;opacity=20;html=1;rotation=-30;shadow=0;strokeColor=#A50040;fillColor=#d80073;fontColor=#ffffff;" vertex="1" parent="1">
          <mxGeometry x="505.25" y="87.19" width="289.5" height="151.31" as="geometry" />
        </mxCell>
        <mxCell id="6UKo3PlXrQR8D-CyZD5M-21540" value="&lt;div style=&quot;font-size: 20px;&quot;&gt;&lt;font style=&quot;font-size: 20px;&quot;&gt;&lt;b&gt;Satellite&lt;/b&gt;&lt;/font&gt;&lt;/div&gt;&lt;div style=&quot;font-size: 20px;&quot;&gt;&lt;font style=&quot;font-size: 20px;&quot;&gt;&lt;b&gt;data&lt;br&gt;&lt;/b&gt;&lt;/font&gt;&lt;/div&gt;" style="text;align=center;html=1;fontColor=#FFFFFF;fontSize=16;" vertex="1" parent="1">
          <mxGeometry x="710" y="78.69" width="40" height="40" as="geometry" />
        </mxCell>
        <mxCell id="6UKo3PlXrQR8D-CyZD5M-21543" value="&lt;font size=&quot;1&quot;&gt;&lt;b&gt;&lt;i style=&quot;font-size: 22px;&quot;&gt;A&lt;/i&gt;&lt;/b&gt;&lt;/font&gt;" style="text;align=center;html=1;fontColor=#FFFFFF;fontSize=16;" vertex="1" parent="1">
          <mxGeometry x="580" y="190" width="40" height="40" as="geometry" />
        </mxCell>
        <mxCell id="6UKo3PlXrQR8D-CyZD5M-21544" value="&lt;font size=&quot;1&quot;&gt;&lt;b&gt;&lt;i style=&quot;font-size: 22px;&quot;&gt;E&lt;/i&gt;&lt;/b&gt;&lt;/font&gt;" style="text;align=center;html=1;fontColor=#FFFFFF;fontSize=16;" vertex="1" parent="1">
          <mxGeometry x="739.5" y="388.5" width="40" height="40" as="geometry" />
        </mxCell>
        <mxCell id="6UKo3PlXrQR8D-CyZD5M-21545" value="&lt;font size=&quot;1&quot;&gt;&lt;b&gt;&lt;i style=&quot;font-size: 22px;&quot;&gt;C&lt;/i&gt;&lt;/b&gt;&lt;/font&gt;" style="text;align=center;html=1;fontColor=#FFFFFF;fontSize=16;" vertex="1" parent="1">
          <mxGeometry x="360" y="388.5" width="40" height="40" as="geometry" />
        </mxCell>
        <mxCell id="6UKo3PlXrQR8D-CyZD5M-21546" value="&lt;font size=&quot;1&quot;&gt;&lt;b&gt;&lt;i style=&quot;font-size: 22px;&quot;&gt;D&lt;/i&gt;&lt;/b&gt;&lt;/font&gt;" style="text;align=center;html=1;fontColor=#FFFFFF;fontSize=16;" vertex="1" parent="1">
          <mxGeometry x="650" y="550" width="40" height="40" as="geometry" />
        </mxCell>
      </root>
    </mxGraphModel>
  </diagram>
</mxfile>
